<svg xmlns="http://www.w3.org/2000/svg" viewBox="0 0 181.55 62.74"><defs><style>.cls-1{fill:#fff;}.cls-2{fill:#f9b200;}.cls-3{fill:#464648;}</style></defs><title>JX-logo-white_2</title><g id="Layer_2" data-name="Layer 2"><g id="Layer_1-2" data-name="Layer 1"><path id="_Compound_Path_" data-name="&lt;Compound Path&gt;" class="cls-1" d="M130.94,11.2q-1.82.18-3.46.43t-3,.57q-1.39.32-2.32.61l1.36,8.56a23,23,0,0,1,4.57-1.11,36.47,36.47,0,0,1,5.35-.39q4.07,0,5.71,1.64a5.88,5.88,0,0,1,1.64,4.35v1a16.46,16.46,0,0,0-2.6-.46,33.7,33.7,0,0,0-3.67-.18,28.44,28.44,0,0,0-5.92.61,16,16,0,0,0-5.06,2A10.15,10.15,0,0,0,120,32.42,10.94,10.94,0,0,0,118.64,38a13.17,13.17,0,0,0,1.14,5.78,9.62,9.62,0,0,0,3.28,3.82,14.32,14.32,0,0,0,5.1,2.11,31.22,31.22,0,0,0,6.6.64,61.09,61.09,0,0,0,9.84-.68q4.07-.68,6.35-1.18V26.36a23.93,23.93,0,0,0-.79-6.35,11.3,11.3,0,0,0-2.67-4.85,12.2,12.2,0,0,0-5-3.07A24.61,24.61,0,0,0,134.62,11q-1.86,0-3.67.18m-.07,30a3.64,3.64,0,0,1-1.68-3.46,3.77,3.77,0,0,1,.57-2.14,4,4,0,0,1,1.57-1.36,7.37,7.37,0,0,1,2.32-.68,21.12,21.12,0,0,1,2.82-.18,21.39,21.39,0,0,1,2.35.14q1.28.14,1.93.29v8.06a20.38,20.38,0,0,1-2.28.21q-1.43.07-3,.07a9.26,9.26,0,0,1-4.6-1M114,12H103.37V49.54H114ZM74.19,12H62.71l6.39,9.07,6.73,9.56q-2,2.15-4,4.6a62.93,62.93,0,0,0-3.8,5q-1.76,2.6-3.23,5t-2.37,4.2H73.24Q74,48.12,75,46.48l2-3.31A14.51,14.51,0,0,1,79,40.38q1.11-1.12,2.19-2,1.13,1,2.29,2.21a17.32,17.32,0,0,1,2.23,3q1.07,1.75,1.92,3.35l1.44,2.68h11.4a94.06,94.06,0,0,0-5.57-9.06,111.7,111.7,0,0,0-8-10.22L100,12H89L81.57,22.54ZM37,27a15.18,15.18,0,0,1,.68-2.68A7.2,7.2,0,0,1,39,22a6.35,6.35,0,0,1,2.14-1.61,7.15,7.15,0,0,1,3.07-.61,6.75,6.75,0,0,1,3.1.64,6.49,6.49,0,0,1,2.07,1.64,6.62,6.62,0,0,1,1.21,2.28A11,11,0,0,1,51.08,27ZM27.29,38.77a16.28,16.28,0,0,0,3.64,6.17A17.14,17.14,0,0,0,37.13,49a23.64,23.64,0,0,0,8.81,1.5,37.51,37.51,0,0,0,4-.21q2-.21,3.75-.53A29.92,29.92,0,0,0,56.86,49a14.68,14.68,0,0,0,2.28-.86l-1.43-8.63a21.63,21.63,0,0,1-4.6,1.32,30.74,30.74,0,0,1-5.74.53,12.33,12.33,0,0,1-7.28-1.93A7.06,7.06,0,0,1,37,34.27H61.14q.07-.86.14-2t.07-2q0-9.49-4.64-14.38T44.09,11a18,18,0,0,0-6.67,1.28,16.76,16.76,0,0,0-5.74,3.78,18.71,18.71,0,0,0-4,6.24,22.93,22.93,0,0,0-1.53,8.74,24.45,24.45,0,0,0,1.18,7.71M17.12,59.17q3.64-3.57,3.64-11V12H10.13V47.9a7.86,7.86,0,0,1-1,4.35,3.89,3.89,0,0,1-3.5,1.5,14.72,14.72,0,0,1-2.25-.14,12.72,12.72,0,0,1-2-.5L0,61.74a17.65,17.65,0,0,0,3.67.79q2,.21,3,.21,6.85,0,10.49-3.57"/><path class="cls-2" d="M175.61,11.39a5,5,0,0,1,3.18,1.16l1.62,1.36L179.57,12C178.3,9,175.43,5.82,168.92,7h-.7c-6.55-1.19-9.43,2.07-10.69,5l-.84,2,1.63-1.43A5,5,0,1,1,160,21.05l-1.59-.52,1,1.31a12.14,12.14,0,0,0,.87,1,11.61,11.61,0,0,0,16.42,0,11.84,11.84,0,0,0,.85-.95l1-1.27-1.56.48a5,5,0,1,1-1.47-9.69Z"/><path class="cls-3" d="M177.38,5.08l3.48-3.48A.94.94,0,1,0,179.54.27L175.91,3.9a13,13,0,0,0-14.71,0L157.57.27a.94.94,0,1,0-1.32,1.32l3.49,3.49a13,13,0,1,0,17.65,0ZM175.61,21.8a5.45,5.45,0,0,0,1.62-.24,11.23,11.23,0,0,1-.81.91,11.11,11.11,0,0,1-15.72,0,11.23,11.23,0,0,1-.83-.94A5.45,5.45,0,1,0,158,12.24c1.24-2.94,4.08-6,10.58-4.67h0c6.44-1.33,9.29,1.67,10.54,4.59a5.45,5.45,0,1,0-3.5,9.63Z"/><circle class="cls-1" cx="163.41" cy="13.51" r="1.66"/><circle class="cls-1" cx="177.49" cy="13.51" r="1.66"/></g></g></svg>